<svg xmlns="http://www.w3.org/2000/svg" viewBox="0 0 587.3 118"><path fill="#0058A0" d="M131 102.5H17.9c-3.5 0-6.4-2.9-6.4-6.4V23.3c0-3.5 2.9-6.4 6.4-6.4H131c3.5 0 6.4 2.9 6.4 6.4V96c0 3.6-2.9 6.5-6.4 6.5z"/><path fill="#134973" d="M276.9 102.5h-113c-3.5 0-6.4-2.9-6.4-6.4V23.4c0-3.5 2.9-6.4 6.4-6.4H277c3.5 0 6.4 2.9 6.4 6.4v72.7c-.1 3.5-3 6.4-6.5 6.4z"/><path fill="#2B8ACA" d="M569 102H455.9c-3.5 0-6.4-2.9-6.4-6.4V22.9c0-3.5 2.9-6.4 6.4-6.4H569c3.5 0 6.4 2.9 6.4 6.4v72.7c0 3.5-2.9 6.4-6.4 6.4z"/><path fill="#F1F2F2" d="M60 74.2l4.9-29h7.9l-4.9 29M96.6 45.9c-1.6-.6-4-1.2-7.1-1.2-7.8 0-13.3 3.9-13.4 9.6 0 4.2 3.9 6.5 6.9 7.9 3.1 1.4 4.1 2.3 4.1 3.6 0 1.9-2.5 2.8-4.7 2.8-3.2 0-4.9-.4-7.5-1.5l-1-.5-1.1 6.5c1.8.8 5.3 1.5 8.8 1.6 8.3 0 13.7-3.9 13.8-9.9 0-3.3-2.1-5.8-6.6-7.9-2.8-1.3-4.5-2.2-4.4-3.6 0-1.2 1.4-2.5 4.5-2.5 2.6 0 4.5.5 5.9 1.1l.7.3 1.1-6.3M116.9 45.2h-6.1c-1.9 0-3.3.5-4.1 2.4L94.9 74.3h8.3l1.7-4.4H115c.2 1 1 4.4 1 4.4h7.3l-6.4-29.1m-9.7 18.7c.7-1.7 3.2-8.1 3.2-8.1 0 .1.7-1.7 1.1-2.8l.5 2.5s1.5 6.9 1.8 8.4h-6.6zM53.3 45.2L45.6 65l-.8-4c-1.4-4.6-5.9-9.7-11-12.2l7.1 25.4h8.4l12.5-29h-8.5"/><path fill="#FAA61A" d="M38.4 45.2H25.6l-.1.6C35.4 48.2 42 54 44.8 61L42 47.6c-.5-1.8-1.9-2.3-3.6-2.4"/><g fill="#FFF"><path d="M481.3 66.1v2.7h7.8v3h-7.8v2.9h8.7l4-4.3-3.9-4.3M456.1 46h4.9l-2.4-5.8"/><path d="M457.1 52h3l1.3 3.4h11.9v-2.5l1 2.5h6.2l1-2.6v2.6H511v-5.5h.5c.4 0 .5.1.5.8v4.7h15.3v-1.3c1.3.7 3.1 1.3 5.7 1.3h6.4L541 52h3l1.4 3.4h12.3v-3.1l1.9 3.1h9.9V34.7h-9.8v2.4l-1.5-2.4h-10v2.4l-1.3-2.4h-13.6c-2.3 0-4.3.3-5.9 1.2v-1.2H518v1.2c-1-.9-2.4-1.2-4-1.2h-34.2l-2.4 5.2-2.4-5.2h-10.7v2.4l-1.3-2.4h-9.2l-4.3 9.8v10.8h6.1l1.5-3.3zm71.1-12.6c1-1.2 3-1.7 5.4-1.7h3.4v3.2h-3.4c-1.3 0-2 .2-2.8.8-.7.7-.9 1.8-.9 3.4 0 1.6.3 2.7.9 3.5.5.5 1.5.7 2.4.7h1.6l5.1-11.6h5.2l5.9 13.9V37.7h5.4l6.2 10.2V37.7h3.6v14.7h-5.1l-6.7-11v11h-7.2l-1.4-3.2h-7.4l-1.4 3.2h-4.1c-1.7 0-3.9-.4-5.2-1.6-1.2-1.3-1.8-3-1.8-5.6.4-2.3.7-4.2 2.3-5.8zm-7.3-1.7h3.6v14.7h-3.6V37.7zm-16.2 0h8.1c1.8 0 3.1 0 4.2.7 1.2.7 1.9 1.6 1.9 3.4 0 2.3-1.5 3.5-2.5 3.9.8.3 1.4.8 1.7 1.3.5.7.7 1.4.7 2.6v2.9h-3.6v-1.9c0-.8.1-2.1-.5-2.9-.6-.5-1.4-.6-2.6-.6h-3.8v5.3h-3.5V37.7zm-14.3 0h11.8v3.1h-8.3v2.6h8.1v3h-8.1v3h8.3v3h-11.8V37.7zm-36.9 14.7h-3.8l6.3-14.7h5.2l6.1 13.9V37.7h5.7l4.6 10 4.3-10h5.8v14.7h-3.6V40.8L479 52.4h-3l-5.2-11.5v11.5h-7.2l-1.3-3.2h-7.4l-1.4 3.2zM567.5 66.4c-.3.3-.6.7-.6 1.2 0 .6.3.9.7 1 .4.1.9.2 1.4.2h1.9c2 0 3.2.4 4.1 1.2.1.1.1.2.2.2v-4h-6.4c-.5 0-1 0-1.3.2z"/><path d="M514.3 43.6c.4-.2.7-.7.7-1.3 0-.7-.2-1.1-.7-1.4-.4-.2-1.2-.2-1.8-.2h-4.3V44h4.3c.7 0 1.2 0 1.8-.4zM542.5 40.2L540 46h4.9M529.4 66.4c-.4-.3-1-.3-1.7-.3h-4.3v3.4l4.3-.1c.7 0 1.2 0 1.7-.2.4-.3.7-.8.7-1.5s-.3-1.1-.7-1.3z"/><path d="M570.6 77.8h-6.8v-3.1h6.8c.7 0 1.2-.1 1.4-.3.2-.2.4-.6.4-.9 0-.4-.2-.9-.4-1-.2-.2-.6-.3-1.3-.3-3.2-.1-7.4.1-7.4-4.6 0-2.1 1.4-4.4 5.1-4.4h6.9v-3h-6.5c-1.9 0-3.4.6-4.5 1.3v-1.3h-9.6c-1.6 0-3.4.4-4.3 1.3v-1.3h-17.2v1.3c-1.5-1-3.7-1.3-4.8-1.3H517v1.3c-1-1-3.5-1.3-5-1.3h-12.8l-3 3.2-2.7-3.2h-19v20.7h18.7l3-3.2 2.8 3.2h11.6v-4.8h1c1.6 0 3.4 0 5-.8v5.6h9.5v-5.4h.5c.6 0 .7 0 .7.7v4.7h28.9c1.8 0 3.7-.4 4.7-1.3v1.3h9.2c1.9 0 3.8-.3 5.1-.9v-4c-.8 1.2-2.4 1.8-4.6 1.8zm-58.6-5h-4.5v4.9h-6.8l-4.3-4.8-4.5 4.8h-14V63h14.3l4.3 4.8 4.6-4.8h11.3c2.8 0 5.9.8 5.9 4.8-.2 4.2-3.3 5-6.3 5zm21.3-.6c.4.7.6 1.4.6 2.7v2.9h-3.5V76c0-1 0-2.3-.6-3-.6-.5-1.3-.7-2.5-.7h-3.8v5.4h-3.6V63h8.1c1.8 0 3.2.1 4.3.7 1.2.7 1.8 1.6 1.8 3.3 0 2.3-1.5 3.6-2.5 3.9.7.3 1.3.9 1.7 1.3zm14.5-6.1h-8.3v2.7h8.1v3h-8.1v3h8.3v3H536V63h11.8v3.1zm9 11.7H550v-3.1h6.8c.7 0 1-.1 1.4-.3.2-.2.4-.6.4-.9 0-.4-.2-.9-.4-1-.2-.2-.6-.3-1.3-.3-3.2-.1-7.4.1-7.4-4.6 0-2.1 1.3-4.4 5.1-4.4h7v3.1h-6.5c-.7 0-1.1 0-1.4.2-.4.3-.6.7-.6 1.2 0 .6.3.9.7 1 .4.1.9.2 1.4.2h1.9c2 0 3.2.4 4.1 1.2.6.8 1 1.7 1 3.2.2 3-1.9 4.5-5.4 4.5z"/><path d="M512.2 66.1h-4.7v3.7h4.7c1.3 0 2.1-.7 2.1-2 0-1.2-.8-1.7-2.1-1.7zM504.1 76.5V64.6l-5.5 5.8"/></g><path fill="#FFF" d="M428.3 22.6c0-3.5-2.9-6.4-6.4-6.4H308.8c-3.5 0-6.4 2.9-6.4 6.4v72.7c0 3.5 2.9 6.4 6.4 6.4h14c67.4-11.6 104.6-37.4 105.5-38V22.6z"/><path fill="#F58220" d="M428.3 95.4V63.7c-.9.7-38.1 26.4-105.5 38h99.1c3.5.1 6.4-2.8 6.4-6.3zM368.3 39.2c-4.1 0-7.5 3.2-7.5 7.2 0 4.2 3.2 7.4 7.5 7.4 4.2 0 7.5-3.2 7.5-7.3s-3.3-7.3-7.5-7.3z"/><path d="M321.9 39.5h-4v14h4c2.1 0 3.7-.5 5-1.6 1.6-1.3 2.5-3.3 2.5-5.4 0-4.2-3.1-7-7.5-7zm3.2 10.5c-.9.8-2 1.1-3.7 1.1h-.7v-9.3h.7c1.8 0 2.8.3 3.7 1.1.9.8 1.5 2.1 1.5 3.5s-.6 2.8-1.5 3.6zM331.7 39.5h2.7v14h-2.7zM342.1 44.8c-1.6-.6-2.1-1-2.1-1.8 0-.9.9-1.6 2-1.6.8 0 1.5.3 2.2 1.1l1.4-1.9c-1.2-1-2.6-1.6-4.1-1.6-2.5 0-4.4 1.7-4.4 4 0 1.9.9 2.9 3.4 3.8 1.1.4 1.6.6 1.9.8.5.4.8.9.8 1.4 0 1.1-.9 2-2.1 2-1.3 0-2.4-.7-3-1.9l-1.8 1.7c1.3 1.8 2.8 2.7 4.9 2.7 2.8 0 4.8-1.9 4.8-4.6.1-1.9-.8-2.9-3.9-4.1zM348 46.5c0 4.1 3.2 7.3 7.4 7.3 1.2 0 2.2-.2 3.4-.8v-3.2c-1.1 1.1-2.1 1.5-3.3 1.5-2.8 0-4.7-2-4.7-4.8 0-2.7 2-4.8 4.6-4.8 1.3 0 2.3.5 3.4 1.6V40c-1.2-.6-2.2-.9-3.4-.9-4.1.1-7.4 3.3-7.4 7.4zM382.9 48.9l-3.7-9.4h-3l6 14.3h1.4l6.1-14.3h-3M391.9 53.5h7.8v-2.4h-5v-3.8h4.8V45h-4.8v-3.2h5v-2.3h-7.8M411.5 43.6c0-2.6-1.8-4.1-5-4.1h-4.1v14h2.7v-5.6h.4l3.8 5.6h3.4l-4.4-5.9c2.1-.4 3.2-1.8 3.2-4zm-5.5 2.3h-.8v-4.2h.8c1.7 0 2.6.7 2.6 2.1.1 1.4-.8 2.1-2.6 2.1zM346.4 57.2L350 61v-3.6h.5v4.9l-3.7-3.8v3.6h-.5v-4.9z"/><path d="M346.3 57.2v4.9h.6v-3.5l3.7 3.8v-5.1h-.6v3.6l-3.7-3.8v.1zm.1.1l3.7 3.8v-3.7h.4v4.7l-3.7-3.8V62h-.4v-4.7zM353.1 57.4h2.4v.5h-1.9v1.4h1.9v.5h-1.9v1.8h1.9v.5h-2.4v-4.7z"/><path d="M355.5 57.3H353v4.8h2.5v-.6h-1.9v-1.7h1.9v-.6h-1.9v-1.3h1.9v-.6zm0 .1v.4h-1.9v1.5h1.9v.4h-1.9v1.9h1.9v.4h-2.3v-4.6h2.3zM359.2 62.1h-.5v-4.2h-1.1v-.5h2.8v.5h-1.1v4.2z"/><path d="M360.3 57.3h-2.8v.6h1.1v4.2h.6v-4.2h1.1v-.6zm0 .1v.4h-1.1V62h-.4v-4.2h-1.1v-.4h2.6zM363.8 60.9l1.5-3.8 1.5 3.8 1.2-3.5h.6l-1.8 4.9-1.5-3.8-1.5 3.8-1.8-4.9h.6l1.2 3.5z"/><path d="M365.3 57.1s-1.4 3.4-1.5 3.6c-.1-.2-1.2-3.4-1.2-3.4h-.6l1.9 5.1s1.4-3.6 1.5-3.8c.1.2 1.5 3.8 1.5 3.8l1.9-5.1h-.7s-1.1 3.2-1.2 3.4c-.1-.2-1.5-3.7-1.5-3.7l-.1.1zm-1.4 3.8s1.4-3.4 1.5-3.6c.1.2 1.5 3.8 1.5 3.8s1.2-3.5 1.3-3.6h.5c0 .1-1.6 4.5-1.7 4.7-.1-.2-1.5-3.8-1.5-3.8s-1.4 3.5-1.5 3.8c-.1-.2-1.7-4.6-1.7-4.7h.5c0 .1 1.3 3.6 1.3 3.6l-.2-.2zM375.4 59.7c0 1.3-1.1 2.4-2.4 2.4-1.3 0-2.4-1.1-2.4-2.4 0-1.3 1.1-2.4 2.4-2.4 1.3 0 2.4 1.1 2.4 2.4zm-4.3 0c0 1.1.9 1.9 1.9 1.9 1.1 0 1.9-.9 1.9-1.9 0-1.1-.8-1.9-1.9-1.9-1.1 0-1.9.8-1.9 1.9z"/><path d="M370.5 59.7c0 1.4 1.1 2.5 2.5 2.5s2.5-1.1 2.5-2.5-1.1-2.5-2.5-2.5-2.5 1.1-2.5 2.5zm.1 0c0-1.3 1.1-2.4 2.4-2.4 1.3 0 2.4 1.1 2.4 2.4 0 1.3-1.1 2.4-2.4 2.4-1.3 0-2.4-1.1-2.4-2.4z"/><path d="M371 59.7c0 1.1.9 2 2 2s2-.9 2-2-.9-2-2-2-2 .9-2 2zm.1 0c0-1 .8-1.9 1.9-1.9 1 0 1.9.8 1.9 1.9 0 1-.8 1.9-1.9 1.9-1.1 0-1.9-.8-1.9-1.9zM378.2 62.1h-.5v-4.7h.7c.9 0 1.7.2 1.7 1.3 0 .7-.5 1.2-1.2 1.3l1.5 2.1h-.6l-1.4-2.1h-.1v2.1zm0-2.6h.2c.6 0 1.2-.1 1.2-.8 0-.8-.6-.8-1.2-.8h-.2v1.6z"/><path d="M377.7 57.3v4.8h.6V60h.1l1.4 2H380.6s-1.4-2-1.5-2.1c.7-.1 1.1-.6 1.1-1.3 0-.9-.6-1.3-1.8-1.3h-.7zm.7.1c1.1 0 1.7.4 1.7 1.2 0 .7-.4 1.2-1.1 1.2h-.1s1.4 1.9 1.5 2.1h-.5l-1.4-2h-.2V62h-.4v-4.6h.5z"/><path d="M378.2 57.8v1.8h.2c.6 0 1.2-.1 1.2-.9s-.6-.9-1.2-.9h-.2zm.2.1c.6 0 1.1.1 1.1.8 0 .7-.6.8-1.1.8h-.1v-1.6h.1zM385.1 57.4h.7l-2.2 2.2 2.3 2.5h-.7l-1.9-2.2-.1.1v2h-.5v-4.7h.5v2l1.9-1.9z"/><path d="M385.8 57.3h-.7l-1.9 1.9v-1.9h-.6v4.8h.6V60l.1-.1 1.9 2.1h.9s-2.3-2.5-2.3-2.6l2.3-2.2h-.3zm-.1.1l-2.1 2.1s2.1 2.3 2.2 2.5h-.6l-1.9-2.1-.2.2v2h-.4v-4.6h.4v2.1s2-2.1 2.1-2.1c0-.1.3-.1.5-.1z"/><g><path fill="#F89820" d="M220.4 79c4.6 4.2 10.7 6.7 17.4 6.7 14.3 0 25.9-11.6 25.9-26 0-14.3-11.6-26-25.9-26-6.7 0-12.8 2.5-17.4 6.7-5.2 4.8-8.5 11.6-8.5 19.3 0 7.7 3.2 14.5 8.5 19.3"/><path fill="#CB2128" d="M228.8 57c-.1-.9-.2-1.9-.4-2.7h-15.9c.2-.9.5-1.9.8-2.8h14.4c-.3-.9-.7-1.9-1.1-2.8h-12.2c.4-1 .9-1.9 1.5-2.8h9.2c-.6-1-1.3-1.9-2-2.8h-5.2c.8-1 1.7-1.9 2.6-2.8-4.6-4.2-10.7-6.7-17.4-6.7-14.3 0-25.9 11.6-25.9 26 0 14.3 11.6 26 25.9 26 6.7 0 12.8-2.5 17.4-6.7.9-.9 1.8-1.8 2.6-2.8h-5.2c-.7-.9-1.4-1.8-2-2.8h9.2c.6-.9 1-1.8 1.5-2.8h-12.2c-.4-.9-.8-1.8-1.1-2.8h14.4c.3-.9.6-1.8.8-2.8.2-.9.3-1.8.4-2.8.1-.9.1-1.8.1-2.7-.1-.6-.1-1.5-.2-2.4"/><path fill="#FFF" d="M237.5 53.8l-.5 2.9c-1-.5-1.7-.7-2.5-.7-2.1 0-3.6 2-3.6 4.9 0 2 1 3.2 2.6 3.2.7 0 1.5-.2 2.4-.7l-.5 3c-1 .3-1.7.4-2.5.4-3 0-4.9-2.2-4.9-5.7 0-4.7 2.6-8 6.3-8 .5 0 .9 0 1.3.1l1.2.3c.4.1.5.2.7.3M228.5 55.7h-.3c-.9 0-1.4.5-2.3 1.7l.2-1.6h-2.5l-1.7 10.7h2.8c1-6.6 1.3-7.7 2.6-7.7h.2c.2-1.3.6-2.2 1.1-3.1h-.1M212.3 66.4c-.8.2-1.4.3-2 .3-1.4 0-2.2-.8-2.2-2.4 0-.3 0-.6.1-1l.2-1 .1-.8 1.2-7.3h2.8l-.3 1.6h1.4l-.4 2.6h-1.4l-.7 4.5v.4c0 .6.3.8 1 .8.3 0 .6 0 .8-.1l-.6 2.4M201.5 59.2c0 1.4.7 2.3 2.1 3 1.1.5 1.3.7 1.3 1.2 0 .7-.5 1-1.6 1-.8 0-1.6-.1-2.5-.4l-.4 2.5h.1l.5.1c.2 0 .4.1.7.1.7.1 1.2.1 1.5.1 3 0 4.3-1.1 4.3-3.6 0-1.5-.6-2.3-2-3-1.2-.5-1.3-.7-1.3-1.2 0-.6.5-.9 1.4-.9.6 0 1.3.1 2 .2l.4-2.5c-.7-.1-1.8-.2-2.5-.2-2.9 0-4 1.6-4 3.6M259 66.5h-2.7l.1-1.1c-.8.8-1.6 1.2-2.6 1.2-2 0-3.4-1.8-3.4-4.4 0-3.6 2.1-6.6 4.6-6.6 1.1 0 1.9.5 2.7 1.5l.6-3.8h2.8L259 66.5m-4.1-2.5c1.3 0 2.2-1.5 2.2-3.6 0-1.4-.5-2.1-1.5-2.1-1.3 0-2.2 1.5-2.2 3.6 0 1.4.5 2.1 1.5 2.1"/><path fill="#FFF" d="M220.9 66.3c-1 .3-1.9.4-2.9.4-3.1 0-4.8-1.6-4.8-4.8 0-3.7 2.1-6.4 4.9-6.4 2.3 0 3.8 1.5 3.8 3.9 0 .8-.1 1.6-.3 2.6H216v.3c0 1.2.8 1.9 2.5 1.9 1 0 1.9-.2 2.9-.7l-.5 2.8m-1.6-6.4v-.5c0-.9-.5-1.4-1.3-1.4-.9 0-1.5.7-1.8 1.9h3.1zM190.8 66.5H188l1.6-10.1-3.6 10.1h-1.9l-.3-10-1.7 10h-2.6l2.2-13.1h4.1l.1 8.1 2.7-8.1h4.4M197.7 61.8h-.6c-1.6 0-2.4.5-2.4 1.6 0 .7.4 1.1 1 1.1 1.2 0 2-1.1 2-2.7m2.1 4.7h-2.3l.1-1.1c-.7.9-1.7 1.3-3 1.3-1.5 0-2.6-1.2-2.6-2.9 0-2.6 1.8-4.1 4.9-4.1.3 0 .7 0 1.1.1.1-.4.1-.5.1-.7 0-.7-.5-1-1.8-1-.8 0-1.7.1-2.3.3l-.4.1-.3.1.4-2.4c1.4-.4 2.3-.6 3.4-.6 2.4 0 3.7 1.1 3.7 3.1 0 .5 0 .9-.2 2.1l-.6 3.8-.1.7-.1.5-.1.4.1.3zM242.1 61.8h-.6c-1.6 0-2.4.5-2.4 1.6 0 .7.4 1.1 1 1.1 1.1 0 1.9-1.1 2-2.7m2 4.7h-2.3l.1-1.1c-.7.9-1.7 1.3-3 1.3-1.5 0-2.6-1.2-2.6-2.9 0-2.6 1.8-4.1 4.9-4.1.3 0 .7 0 1.1.1.1-.4.1-.5.1-.7 0-.7-.5-1-1.8-1-.8 0-1.7.1-2.3.3l-.4.1-.3.1.4-2.4c1.4-.4 2.3-.6 3.4-.6 2.4 0 3.7 1.1 3.7 3.1 0 .5 0 .9-.2 2.1l-.6 3.8-.1.7-.1.5-.1.4.1.3zM251.7 55.7h-.3c-.9 0-1.5.5-2.3 1.7l.2-1.6h-2.5l-1.7 10.7h2.8c1-6.6 1.3-7.7 2.6-7.7h.2c.3-1.2.6-2.2 1-3.1"/></g></svg>